<svg width="20" height="25" viewBox="0 0 20 25" fill="none" xmlns="http://www.w3.org/2000/svg">
<path d="M19.0811 10.6971C19.0811 17.6971 10.0811 23.6971 10.0811 23.6971C10.0811 23.6971 1.08105 17.6971 1.08105 10.6971C1.08105 8.3102 2.02927 6.02101 3.71709 4.33318C5.40492 2.64536 7.69411 1.69714 10.0811 1.69714C12.468 1.69714 14.7572 2.64536 16.445 4.33318C18.1328 6.02101 19.0811 8.3102 19.0811 10.6971Z" stroke="#090A0A" stroke-width="1.5" stroke-linecap="round" stroke-linejoin="round"/>
<path d="M10.0811 13.6971C11.7379 13.6971 13.0811 12.354 13.0811 10.6971C13.0811 9.04029 11.7379 7.69714 10.0811 7.69714C8.4242 7.69714 7.08105 9.04029 7.08105 10.6971C7.08105 12.354 8.4242 13.6971 10.0811 13.6971Z" stroke="#090A0A" stroke-width="1.5" stroke-linecap="round" stroke-linejoin="round"/>
</svg>
